# xmcd
#
# Track frame offsets: 
#        150
#        16476
#        29951
#
# Disc length: 584 seconds
#
# Revision: 0
# Processed by: cddbd v1.4PL0 Copyright (c) Steve Scherf et al.
# Submitted via: ExactAudioCopy v0.90b4
#
DISCID=23024603
DTITLE=Dustin Evans - If I Die Before You Wake
DYEAR=2003
DGENRE=Country
TTITLE0=If I Die Before You Wake
TTITLE1=What's Going on With You (Lewis Anderson)
TTITLE2=Dad's Song
EXTD=
EXTT0=
EXTT1=
EXTT2=
PLAYORDER=
